<svg id="Icon_ionic-ios-quote" data-name="Icon ionic-ios-quote" xmlns="http://www.w3.org/2000/svg" width="56.817" height="56.835" viewBox="0 0 56.817 56.835">
  <path id="Path_33298" data-name="Path 33298" d="M12.254,63.585H23.8a8.548,8.548,0,0,0,8.523-8.523V32.335A8.548,8.548,0,0,0,23.8,23.813H16.924a1.429,1.429,0,0,1-1.42-1.527A21.657,21.657,0,0,1,21.061,9.129,1.421,1.421,0,0,0,20.013,6.75H12.929a1.379,1.379,0,0,0-1.119.55C10.5,9,6.75,14.687,6.75,23.973v34.09a5.382,5.382,0,0,0,5.5,5.522Z" transform="translate(24.5 -6.75)" fill="#f5f7f8"/>
  <path id="Path_33299" data-name="Path 33299" d="M24.629,63.585H36.17a8.548,8.548,0,0,0,8.523-8.523V32.335a8.548,8.548,0,0,0-8.523-8.523H29.3a1.429,1.429,0,0,1-1.42-1.527A21.657,21.657,0,0,1,33.436,9.129,1.421,1.421,0,0,0,32.388,6.75H25.3a1.379,1.379,0,0,0-1.119.55c-1.314,1.7-5.06,7.386-5.06,16.672v34.09a5.382,5.382,0,0,0,5.5,5.522Z" transform="translate(-19.125 -6.75)" fill="#f5f7f8"/>
</svg>
