<svg xmlns="http://www.w3.org/2000/svg" width="133.871" height="103.44" viewBox="0 0 133.871 103.44">
  <g id="Group_76314" data-name="Group 76314" transform="translate(0.806)">
    <g id="Group_43818" data-name="Group 43818" transform="translate(14.453)">
      <g id="Group_111" data-name="Group 111" transform="translate(50.776)">
        <g id="Group_109" data-name="Group 109" transform="translate(0 15.196)">
          <g id="Group_108" data-name="Group 108" transform="translate(0)">
            <g id="Group_107" data-name="Group 107" transform="translate(0)">
              <g id="Group_106" data-name="Group 106" transform="translate(0 5.109)">
                <g id="Group_105" data-name="Group 105" transform="translate(0 0)">
                  <g id="Group_104" data-name="Group 104" transform="translate(0 0)">
                    <ellipse id="Ellipse_5" data-name="Ellipse 5" cx="6.166" cy="5.652" rx="6.166" ry="5.652" transform="translate(34.556 33.751) rotate(-67.941)" fill="#ffc89e"/>
                    <path id="Path_208" data-name="Path 208" d="M699.411,185.148a3.345,3.345,0,1,1-1.724-4.621A3.494,3.494,0,0,1,699.411,185.148Z" transform="translate(-653.108 -153.376)" fill="#efa47d"/>
                    <ellipse id="Ellipse_6" data-name="Ellipse 6" cx="6.166" cy="5.652" rx="6.166" ry="5.652" transform="translate(0 19.153) rotate(-67.944)" fill="#ffc89e"/>
                    <path id="Path_209" data-name="Path 209" d="M626.509,154.473a3.345,3.345,0,1,1-1.724-4.621A3.494,3.494,0,0,1,626.509,154.473Z" transform="translate(-616.097 -137.803)" fill="#efa47d"/>
                    <path id="Rectangle_21" data-name="Rectangle 21" d="M16.3,0h0A16.3,16.3,0,0,1,32.6,16.3v3.976a16.3,16.3,0,0,1-16.3,16.3h0A16.3,16.3,0,0,1,0,20.277V16.3A16.3,16.3,0,0,1,16.3,0Z" transform="translate(2.333 30.216) rotate(-67.942)" fill="#ffc89e"/>
                    <path id="Path_210" data-name="Path 210" d="M661.269,168.361l-.74.674a8.725,8.725,0,0,0-.444-1.236,8.315,8.315,0,0,0-.53,1.327" transform="translate(-636.156 -147.029)" fill="none" stroke="#4f0200" stroke-miterlimit="10" stroke-width="1"/>
                    <g id="Group_100" data-name="Group 100" transform="translate(13.347 14.298)">
                      <path id="Path_211" data-name="Path 211" d="M641.5,163.808h0a3.787,3.787,0,0,1-2.087-4.932l.753-1.858a3.787,3.787,0,0,1,4.931-2.087h0a3.787,3.787,0,0,1,2.088,4.931l-.753,1.858A3.787,3.787,0,0,1,641.5,163.808Z" transform="translate(-639.138 -154.653)" fill="#f7fffa"/>
                      <path id="Path_212" data-name="Path 212" d="M649.358,161.29a3.773,3.773,0,0,0-.126-3.113,2.753,2.753,0,0,0-.809-.51c-1.71-.693-3.789.455-4.644,2.564s-.161,4.381,1.549,5.074a2.746,2.746,0,0,0,.474.139,3.782,3.782,0,0,0,2.8-2.3Z" transform="translate(-641.309 -156.08)" fill="#2b2b2b"/>
                    </g>
                    <g id="Group_101" data-name="Group 101" transform="translate(28.368 20.318)">
                      <path id="Path_213" data-name="Path 213" d="M672.348,176.215h0a3.787,3.787,0,0,0,4.716-2.537l.577-1.92a3.786,3.786,0,0,0-2.536-4.716h0a3.786,3.786,0,0,0-4.716,2.536l-.577,1.92A3.787,3.787,0,0,0,672.348,176.215Z" transform="translate(-669.651 -166.881)" fill="#f7fffa"/>
                      <path id="Path_214" data-name="Path 214" d="M670.389,169.935a3.772,3.772,0,0,1,2.048-2.348,2.744,2.744,0,0,1,.95.109c1.767.531,2.669,2.728,2.014,4.908s-2.619,3.516-4.386,2.985a2.727,2.727,0,0,1-.456-.188,3.781,3.781,0,0,1-.747-3.546Z" transform="translate(-669.651 -167.237)" fill="#2b2b2b"/>
                    </g>
                    <g id="Group_103" data-name="Group 103" transform="translate(16.435 25.904)">
                      <path id="Path_215" data-name="Path 215" d="M648.757,178.284c3.014.679,2.449,2.9,3.7,3.066s3.177-1.2,4.421.572-1.371,7.9-8.578,4.015C643.257,183.216,645.743,177.6,648.757,178.284Z" transform="translate(-645.411 -178.227)" fill="#2b2b2b"/>
                      <path id="Path_216" data-name="Path 216" d="M658.4,189.1a8.79,8.79,0,0,0-2.46-1.147,7.572,7.572,0,0,0-7.612,1.7,6.583,6.583,0,0,0,1.452,1.045C654.8,193.4,657.587,191.256,658.4,189.1Z" transform="translate(-646.892 -182.986)" fill="#ffac9f"/>
                      <path id="Path_217" data-name="Path 217" d="M649.847,178.33a5.425,5.425,0,0,0,4.18,4.982,5.779,5.779,0,0,0,5.307-.947,1.537,1.537,0,0,0-.2-.443c-1.245-1.776-3.171-.4-4.422-.572s-.685-2.386-3.7-3.066A2.247,2.247,0,0,0,649.847,178.33Z" transform="translate(-647.663 -178.228)" fill="#f7fffa"/>
                      <g id="Group_102" data-name="Group 102" transform="translate(2.847 0.005)">
                        <path id="Path_218" data-name="Path 218" d="M659.529,181.591a2.052,2.052,0,0,0-.214-.193,4.436,4.436,0,0,1-.92.564c-.008-.014-.013-.028-.023-.041a.522.522,0,0,0-.2-.179.56.56,0,0,0-.288-.06.546.546,0,0,0-.264.089.525.525,0,0,0-.2.25c-.012.018-.025.035-.036.053l-.005.008-.008.017a1.209,1.209,0,0,0-.049.14.191.191,0,0,0,0,.019c0,.012,0,.025,0,.037a4.588,4.588,0,0,1-2.478-.24l.015-.022v0l.044-.126v0l.009-.134v0h0a.458.458,0,0,0-.013-.065l-.013-.065h0v0s-.056-.116-.058-.119a.644.644,0,0,0-.044-.053l-.043-.05-.11-.076-.065-.023c-.009,0-.018,0-.027-.005l-.02-.007a.3.3,0,0,0-.067-.022c-.045-.006-.091-.008-.137-.01a.172.172,0,0,0-.032,0c-.043.007-.088.017-.13.026l-.008,0-.017.005-.016.007c-.039.019-.082.038-.12.059l-.008,0a.892.892,0,0,0-.123.1.183.183,0,0,0-.024.026l-.009.012A5.737,5.737,0,0,1,652.4,180.1a.18.18,0,0,0,.018-.02c.009-.012.016-.025.025-.036l.039-.055c.015-.022.033-.045.046-.069,0-.008.005-.017.009-.025a.472.472,0,0,0,.075-.168.533.533,0,0,0-.069-.36.477.477,0,0,0-.182-.164l-.07-.025h0l-.057-.02.057.02c-.007,0-.013-.011-.02-.015a.358.358,0,0,0-.172-.078c-.023,0-.054,0-.071,0a.43.43,0,0,0-.07,0,.594.594,0,0,0-.134.027,6.4,6.4,0,0,1-.312-.839,2.222,2.222,0,0,0-.316-.022,6.254,6.254,0,0,0,.347,1.083c-.01.015-.022.029-.031.043a.37.37,0,0,0-.029.076.383.383,0,0,0-.025.078l-.009.132v0a.98.98,0,0,0,.026.132l.037.077.024.12.053.109.079.093a.355.355,0,0,0,.162.091.239.239,0,0,0,.124.026.232.232,0,0,0,.11-.006,5.562,5.562,0,0,0,1.624,1.606c0,.013,0,.023,0,.036a.523.523,0,0,0,.284.432.531.531,0,0,0,.272.056.521.521,0,0,0,.253-.085l.01-.006c.025.011.049.024.075.034a5,5,0,0,0,2.81.283l.013.026,0,.005a.091.091,0,0,0,.011.016.509.509,0,0,0,.192.172.5.5,0,0,0,.679-.22l.057-.09.028-.044.014-.023a.224.224,0,0,0,.011-.025l0,.011s0-.008,0-.012a.735.735,0,0,0,.034-.1c0-.011.009-.02.011-.031h0c0-.009.007-.017.009-.026v0A4.288,4.288,0,0,0,659.529,181.591Zm-6.943-1.835-.04.113,0,.007C652.558,179.836,652.573,179.8,652.586,179.756Zm-.716-.551h0l.011,0Zm6.437,2.8a.365.365,0,0,0-.069-.1l.077.09v0Z" transform="translate(-651.194 -178.238)" fill="#a0a0a0"/>
                        <path id="Path_219" data-name="Path 219" d="M653.419,180.142h0l.065.023Z" transform="translate(-652.324 -179.205)" fill="#a0a0a0"/>
                        <path id="Path_220" data-name="Path 220" d="M653.418,180.142h0Z" transform="translate(-652.323 -179.204)" fill="#a0a0a0"/>
                      </g>
                    </g>
                  </g>
                  <path id="Path_221" data-name="Path 221" d="M636.232,174.578c-.536,1.322-2.379,1.823-4.116,1.119s-2.711-2.346-2.176-3.668,2.378-1.823,4.115-1.119S636.767,173.256,636.232,174.578Z" transform="translate(-621.047 -148.446)" fill="#ffb8a1"/>
                  <path id="Path_222" data-name="Path 222" d="M679.053,191.061c-.536,1.322-2.378,1.823-4.116,1.119s-2.711-2.346-2.176-3.668,2.378-1.823,4.115-1.119S679.588,189.739,679.053,191.061Z" transform="translate(-642.787 -156.814)" fill="#ffb8a1"/>
                </g>
              </g>
              <path id="Path_223" data-name="Path 223" d="M659.251,119.76c-17.312-10.787-34.8-.2-33.877,9.919,0,0,5.1,1.266,6.129,1.776,2.212,1.094,5.564-5.133,7.2-5.258,0,0-3.224,4.762-2.68,4.927.25.076,5.163,2.483,10.4,5.061,1.127-1.968,4.469-7.8,4.224-7.33-.254.485-2.164,6.432-2.692,8.084l3.747,1.849c1.138-1.7,4.522-6.713,4.33-5.788a70.975,70.975,0,0,1-2.813,6.538c3.4,1.678,5.938,2.937,5.938,2.937s2.814-6.852,2.9-5.836a51.708,51.708,0,0,1-.5,8.026s5.065,1.075,5.125,5.447C666.676,150.111,676.562,130.547,659.251,119.76Z" transform="translate(-618.786 -115.234)" fill="#2b2b2b"/>
            </g>
          </g>
        </g>
        <path id="Path_229" data-name="Path 229" d="M648.545,151.006a3.94,3.94,0,0,1,3.939.692" transform="translate(-630.567 -118.071)" fill="#2b2b2b" stroke="#2b2b2b" stroke-miterlimit="10" stroke-width="1"/>
        <path id="Path_230" data-name="Path 230" d="M679.716,162.859a2.609,2.609,0,0,1,1.988.3,6.454,6.454,0,0,1,1.557,1.345" transform="translate(-646.392 -124.173)" fill="#2b2b2b" stroke="#2b2b2b" stroke-miterlimit="10" stroke-width="1"/>
        <g id="Group_110" data-name="Group 110" transform="translate(19.001)">
          <path id="Path_231" data-name="Path 231" d="M661.43,100.144S650.122,89.934,650.64,89.2s4.386-2.5,4.386-2.5l2.123,4.8-.37-6.145,6.326.1-.654,4.535,3.447-5.615s4.917.138,5.044,1.149-4.425,8.928-4.425,8.928l4.67-6.242,1.7,1.132s-5.033,10.951-5.954,11.307S661.43,100.144,661.43,100.144Z" transform="translate(-650.623 -84.367)" fill="#2b2b2b"/>
          <path id="Path_232" data-name="Path 232" d="M665.623,111.382c1.745-2.9,6.987-1.036,4.864,2.635S663.879,114.286,665.623,111.382Z" transform="translate(-658.038 -97.359)" fill="#2b2b2b"/>
          <path id="Path_233" data-name="Path 233" d="M670.291,112.873c1.433,1.243-.129,3.818-2.138,2.212S669.216,111.941,670.291,112.873Z" transform="translate(-659.184 -98.696)" fill="#2b2b2b"/>
          <path id="Path_234" data-name="Path 234" d="M677.341,112.341c1.745-2.9,6.987-1.036,4.864,2.635S675.6,115.246,677.341,112.341Z" transform="translate(-663.987 -97.846)" fill="#2b2b2b"/>
          <path id="Path_235" data-name="Path 235" d="M683.294,113.089c1.08.936-.1,2.877-1.611,1.667S682.484,112.387,683.294,113.089Z" transform="translate(-666.137 -98.841)" fill="#2b2b2b"/>
        </g>
      </g>
      <g id="Group_43656" data-name="Group 43656" transform="translate(0 3.488)">
        <g id="Group_148" data-name="Group 148" transform="translate(0 12.587)">
          <g id="Group_147" data-name="Group 147" transform="translate(0 0)">
            <g id="Group_146" data-name="Group 146" transform="translate(0)">
              <g id="Group_145" data-name="Group 145">
                <g id="Group_144" data-name="Group 144">
                  <ellipse id="Ellipse_7" data-name="Ellipse 7" cx="7.195" cy="7.849" rx="7.195" ry="7.849" transform="matrix(0.973, -0.232, 0.232, 0.973, 0, 26.709)" fill="#fdc59d"/>
                  <path id="Path_294" data-name="Path 294" d="M52.927,163.929a4.259,4.259,0,1,0,3.054-5.485A4.448,4.448,0,0,0,52.927,163.929Z" transform="translate(-49.694 -130.025)" fill="#efa47d"/>
                  <path id="Path_295" data-name="Path 295" d="M138.111,138.936c1,4.217,4.952,6.889,8.818,5.968s6.185-5.086,5.181-9.3-4.953-6.889-8.818-5.968S137.106,134.72,138.111,138.936Z" transform="translate(-90.006 -116.34)" fill="#fdc59d"/>
                  <path id="Path_296" data-name="Path 296" d="M144.259,140.886a4.259,4.259,0,1,0,3.055-5.485A4.448,4.448,0,0,0,144.259,140.886Z" transform="translate(-92.964 -119.108)" fill="#efa47d"/>
                  <path id="Rectangle_28" data-name="Rectangle 28" d="M20.751,0h5.061A20.751,20.751,0,0,1,46.563,20.751v0A20.751,20.751,0,0,1,25.812,41.5H20.751A20.751,20.751,0,0,1,0,20.751v0A20.751,20.751,0,0,1,20.751,0Z" transform="translate(3.953 10.79) rotate(-13.399)" fill="#fdc59d"/>
                  <g id="Group_141" data-name="Group 141" transform="translate(28.149 30.07)">
                    <path id="Path_297" data-name="Path 297" d="M110.752,161.754c-3.721.884-2.99,3.62-4.536,3.847s-3.949-1.444-5.464.771,1.808,9.763,10.674,4.848C117.629,167.781,114.472,160.871,110.752,161.754Z" transform="translate(-100.399 -161.677)" fill="#2b2b2b"/>
                    <path id="Path_298" data-name="Path 298" d="M101.036,174.559a10.892,10.892,0,0,1,3.028-1.455c3.651-1.1,7.333-.215,9.445,1.992a8.157,8.157,0,0,1-1.782,1.314C105.556,179.831,102.074,177.214,101.036,174.559Z" transform="translate(-100.701 -166.867)" fill="#ffac9f"/>
                    <path id="Path_299" data-name="Path 299" d="M112.285,161.8c.074,2.659-1.981,5.282-5.1,6.225a7.153,7.153,0,0,1-6.582-1.1,1.878,1.878,0,0,1,.247-.551c1.515-2.215,3.918-.544,5.464-.771s.815-2.963,4.536-3.847A2.778,2.778,0,0,1,112.285,161.8Z" transform="translate(-100.494 -161.678)" fill="#f7fffa"/>
                  </g>
                  <path id="Path_300" data-name="Path 300" d="M81.941,141.3a7.294,7.294,0,0,1,.693-1.727,2.193,2.193,0,0,1,3.029-.929,7.3,7.3,0,0,1,1.378.913" transform="translate(-63.506 -120.569)" fill="none" stroke="#4f0200" stroke-miterlimit="10" stroke-width="0.75"/>
                  <path id="Path_301" data-name="Path 301" d="M115.575,133.063a9.893,9.893,0,0,1,.848-1.686,2.345,2.345,0,0,1,.882-.915,1.935,1.935,0,0,1,1.681.119,16.088,16.088,0,0,1,1.457.962" transform="translate(-79.44 -116.751)" fill="none" stroke="#4f0200" stroke-miterlimit="10" stroke-width="0.75"/>
                  <path id="Path_302" data-name="Path 302" d="M107.53,151.282l.8.99a11.167,11.167,0,0,1,.8-1.47,10.549,10.549,0,0,1,.413,1.772" transform="translate(-75.629 -126.455)" fill="none" stroke="#4f0200" stroke-miterlimit="10" stroke-width="0.5"/>
                  <g id="Group_142" data-name="Group 142" transform="translate(36.481 17.25)">
                    <path id="Path_303" data-name="Path 303" d="M122.762,149.309h0a4.82,4.82,0,0,0,3.572-5.806l-.591-2.482a4.82,4.82,0,0,0-5.806-3.572h0a4.82,4.82,0,0,0-3.572,5.806l.591,2.482A4.82,4.82,0,0,0,122.762,149.309Z" transform="translate(-116.233 -137.317)" fill="#f7fffa"/>
                    <path id="Path_304" data-name="Path 304" d="M116.366,144.572a4.8,4.8,0,0,1,.755-3.894,3.489,3.489,0,0,1,1.116-.487c2.285-.545,4.682,1.3,5.353,4.117s-.637,5.544-2.922,6.089a3.462,3.462,0,0,1-.624.084,4.812,4.812,0,0,1-3.087-3.426Z" transform="translate(-116.234 -138.633)" fill="#2b2b2b"/>
                  </g>
                  <g id="Group_143" data-name="Group 143" transform="translate(18.287 21.966)">
                    <path id="Path_305" data-name="Path 305" d="M88.756,158.112h0a4.819,4.819,0,0,1-6.072-3.1l-.788-2.427a4.82,4.82,0,0,1,3.1-6.073h0a4.821,4.821,0,0,1,6.073,3.1l.787,2.428A4.819,4.819,0,0,1,88.756,158.112Z" transform="translate(-81.659 -146.278)" fill="#f7fffa"/>
                    <path id="Path_306" data-name="Path 306" d="M93.576,149.972a4.805,4.805,0,0,0-2.672-2.931,3.5,3.5,0,0,0-1.207.166c-2.234.725-3.32,3.546-2.426,6.3s3.431,4.4,5.664,3.676a3.463,3.463,0,0,0,.576-.253,4.811,4.811,0,0,0,.852-4.533Z" transform="translate(-84.169 -146.639)" fill="#2b2b2b"/>
                  </g>
                </g>
                <path id="Path_307" data-name="Path 307" d="M129.556,161.937c.42,1.766,2.643,2.75,4.965,2.2s3.862-2.433,3.442-4.2-2.644-2.75-4.965-2.2S129.135,160.171,129.556,161.937Z" transform="translate(-86.031 -129.668)" fill="#ec938e"/>
                <path id="Path_308" data-name="Path 308" d="M78.84,175.376c.42,1.766,2.643,2.75,4.965,2.2s3.862-2.433,3.442-4.2-2.644-2.75-4.965-2.2S78.419,173.61,78.84,175.376Z" transform="translate(-62.003 -136.035)" fill="#ec938e"/>
              </g>
            </g>
          </g>
        </g>
        <path id="Path_309" data-name="Path 309" d="M101.652,94.388s7.339-4.028,5.71-6.408S94.5,86.463,94.5,86.463s4.539-2.82-2.078-4.556c-19.253-5.051-22.833,6.05-24.855,10.683-1.277-.828-2.854-1.549-3.733-.812-1.641,1.376-.044,3.948-.044,3.948s-4.226-1.208-4.426,1.054c-.1,1.144,1.313,2.051,2.737,2.67-6.233,7.509-3.915,16.1-3.182,18.274.134,1.893.725,7.755,2.978,9.29,2.039,1.389,1.734-5.872,1.463-9.508C70.97,114.3,74.2,101.966,74.2,101.966s-.923,7.5,3.433,7.307c2.26-.1,2.974-4.074,3.2-6.255.015,1.53.463,3.69,2.99,3.089,3.818-.909,1.784-6.5,1.784-6.5,3.622,7.415,11.071,8.01,16.005,7.465l4.214,4.91C116.129,100.8,101.652,94.388,101.652,94.388Z" transform="translate(-52.11 -80.618)" fill="#2b2b2b"/>
        <g id="Group_149" data-name="Group 149" transform="translate(7.729 2.207)">
          <path id="Path_310" data-name="Path 310" d="M102.427,85.51c1.315,1.811-6.232,5.037-7.3,2.619S101.111,83.7,102.427,85.51Z" transform="translate(-77.429 -84.812)" fill="#686868"/>
          <path id="Path_311" data-name="Path 311" d="M105.02,93.821c.258,1.451-4.343,4.745-5.917,3.395S104.762,92.371,105.02,93.821Z" transform="translate(-79.26 -88.916)" fill="#686868"/>
          <path id="Path_312" data-name="Path 312" d="M63.61,121.584c1.372.63,1.619,3.847-.833,4.476S62.238,120.954,63.61,121.584Z" transform="translate(-61.596 -102.21)" fill="#686868"/>
          <path id="Path_313" data-name="Path 313" d="M71.287,121.041c1.5.326,2,4.994-.485,5.184S69.791,120.714,71.287,121.041Z" transform="translate(-65.325 -101.969)" fill="#686868"/>
        </g>
      </g>
    </g>
    <g id="Group_76316" data-name="Group 76316" transform="translate(0 43.083)">
      <g id="Group_43864" data-name="Group 43864" transform="translate(0 17.752) rotate(-8)">
        <g id="Group_152" data-name="Group 152" transform="translate(0 0)">
          <path id="Path_316" data-name="Path 316" d="M110.853,42.394l16.7-32.443L14.531,0,0,33.039Z" fill="#fff" stroke="#9dcbdb" stroke-width="1"/>
        </g>
      </g>
      <g id="Group_76315" data-name="Group 76315" transform="translate(37 12.899)">
        <text id="_5.0" data-name="5.0" transform="translate(12 23)" fill="#2b2b2b" font-size="18" font-family="SegoeUI-Bold, Segoe UI" font-weight="700"><tspan x="-12.792" y="0">5.0</tspan></text>
        <path id="Icon_ionic-ios-star" data-name="Icon ionic-ios-star" d="M25.339,11.683h-7.88l-2.395-7.7a.848.848,0,0,0-1.629,0l-2.395,7.7H3.107a.9.9,0,0,0-.857.923.728.728,0,0,0,.016.156.9.9,0,0,0,.359.652L9.1,18.329,6.616,26.112a.968.968,0,0,0,.295,1.038.8.8,0,0,0,.482.225,1,1,0,0,0,.536-.208l6.321-4.852,6.321,4.852a.96.96,0,0,0,.536.208.744.744,0,0,0,.477-.225.956.956,0,0,0,.295-1.038l-2.486-7.783,6.423-4.962.155-.144a1,1,0,0,0,.279-.617A.939.939,0,0,0,25.339,11.683Z" transform="translate(29.75 1.625)" fill="#f4d243"/>
      </g>
    </g>
  </g>
</svg>
