<svg id="Icon_ionic-ios-quote" data-name="Icon ionic-ios-quote" xmlns="http://www.w3.org/2000/svg" width="56.817" height="56.835" viewBox="0 0 56.817 56.835">
  <path id="Path_33298" data-name="Path 33298" d="M26.814,6.75H15.273A8.548,8.548,0,0,0,6.75,15.273V38a8.548,8.548,0,0,0,8.523,8.523h6.871a1.429,1.429,0,0,1,1.42,1.527,21.657,21.657,0,0,1-5.557,13.157,1.421,1.421,0,0,0,1.048,2.379h7.084a1.379,1.379,0,0,0,1.119-.55c1.314-1.7,5.06-7.386,5.06-16.672V12.272a5.382,5.382,0,0,0-5.5-5.522Z" transform="translate(-6.75 -6.75)" fill="#f5f7f8"/>
  <path id="Path_33299" data-name="Path 33299" d="M39.189,6.75H27.648a8.548,8.548,0,0,0-8.523,8.523V38a8.548,8.548,0,0,0,8.523,8.523h6.871a1.429,1.429,0,0,1,1.42,1.527,21.657,21.657,0,0,1-5.557,13.157,1.421,1.421,0,0,0,1.048,2.379h7.084a1.379,1.379,0,0,0,1.119-.55c1.314-1.7,5.06-7.386,5.06-16.672V12.272a5.382,5.382,0,0,0-5.5-5.522Z" transform="translate(12.124 -6.75)" fill="#f5f7f8"/>
</svg>
